A man and his wife receive a clue to an imminent assassination attempt, only to learn that their daughter has been kidnapped to keep them quiet.
Director
Alfred Hitchcock
Writers
Charles Bennett
Edwin Greenwood
A.R. Rawlinson
D.B. Wyndham-Lewis
Composer
Arthur Benjamin 
Review
Film buffs argue which version of exciting story is better. We vote this one, with Hitchcock in fine form weaving dry British humor into a story of heart-pounding suspense; young girl is kidnapped to prevent her parents from revealing what they've learned about assassination plot.


Leslie Banks	Bob Lawrence
Edna Best	Jill Lawrence
Pierre Fresnay	Louis Bernard
Peter Lorre	Abbott
Cicely Oates	Nurse Agnes
Nova Pilbeam	Betty Lawrence
Hugh Wakefield	Clive
Frank Vosper	Ramon
George Curzon	 


This movie is part of the collection: Feature Films

Director: Alfred Hitchcock
Producer: Ivor Montagu
Production Company: Gaumont British Picture Corporation
Audio/Visual: sound, black & white
General
Complete name                    : The Man Who Knew Too Much 1934
Format                           : MPEG-PS
File size                        : 3.62 GiB
Duration                         : 1h 15mn
Overall bit rate                 : 6 889 Kbps

Video
ID                               : 224 (0xE0)
Format                           : MPEG Video
Format version                   : Version 2
Format profile                   : Main@Main
Format settings, BVOP            : Yes
Format settings, Matrix          : Default
Duration                         : 1h 15mn
Bit rate mode                    : Constant
Bit rate                         : 6 392 Kbps
Nominal bit rate                 : 6 500 Kbps
Width                            : 720 pixels
Height                           : 480 pixels
Display aspect ratio             : 4:3
Frame rate                       : 29.970 fps
Standard                         : NTSC
Resolution                       : 8 bits
Colorimetry                      : 4:2:0
Scan type                        : Interlaced
Scan order                       : Top Field First
Bits/(Pixel*Frame)               : 0.617
Stream size                      : 3.36 GiB (93%)

Audio
ID                               : 192 (0xC0)
Format                           : MPEG Audio
Format version                   : Version 1
Format profile                   : Layer 2
Duration                         : 1h 15mn
Bit rate mode                    : Constant
Bit rate                         : 224 Kbps
Channel(s)                       : 2 channels
Sampling rate                    : 48.0 KHz
Video delay                      : -34ms
Stream size                      : 120 MiB (3%)


